# xmcd CD database file
#
# Track frame offsets:
#	150
#	16912
#	32760
#	47545
#	63570
#	78492
#	92112
#	104337
#	113310
#	131597
#	143957
#	158302
#	168932
#	180322
#	194977
#	209780
#
# Disc length: 3024 seconds
#
# Revision: 1
# Processed by: cddbd v1.5.1PL0 Copyright (c) Steve Scherf et al.
# Submitted via: jetAudio 5
#
DISCID=d40bce10
DTITLE=Crystal Gayle - It's like we never said goodbye
DYEAR=1900
DGENRE=
TTITLE0=Dancing the night away
TTITLE1=Ain't no sunshine
TTITLE2=If you ever change your mind
TTITLE3=It's like we never said goodbye
TTITLE4=The blue side
TTITLE5=A little bit of rain
TTITLE6=Love crazy love
TTITLE7=Tennessee
TTITLE8=Half the way
TTITLE9=Lean on me
TTITLE10=You never gave up on me
TTITLE11=Crying in the rain
TTITLE12=The woman in me
TTITLE13=Same old story (Same old song)
TTITLE14=Livin' in these troubled times
TTITLE15=Miss the Mississippi and you
EXTD=Columbia 451000 2
EXTT0=
EXTT1=
EXTT2=
EXTT3=
EXTT4=
EXTT5=
EXTT6=
EXTT7=
EXTT8=
EXTT9=
EXTT10=
EXTT11=
EXTT12=
EXTT13=
EXTT14=
EXTT15=
PLAYORDER=
